inDegrees=no
num_controls=7
num_derivatives=13
num_iterations=124
num_multipliers=7
num_parameters=0
num_slacks=7
num_states=26
objective=0.516753
objective_accelerations=0.039452
objective_balance=0.002167
objective_effort=0.043472
objective_height=0.420029
objective_ligament=0.011633
solver_duration=1652.520321
status=Solve_Succeeded
success=true
DataType=double
version=3
OpenSimVersion=4.5
endheader
time	/jointset/ground_pelvis/pelvis_tilt/value	/jointset/ground_pelvis/pelvis_tx/value	/jointset/ground_pelvis/pelvis_ty/value	/jointset/hip_l/hip_flexion_l/value	/jointset/hip_l/hip_adduction_l/value	/jointset/hip_l/hip_rotation_l/value	/jointset/back/lumbar_extension/value	/jointset/patellofemoral_l/patellar_flexion_l/value	/jointset/knee_l/knee_flexion_l/value	/jointset/knee_l/knee_adduction_l/value	/jointset/knee_l/knee_rotation_l/value	/jointset/ankle_l/ankle_angle_l/value	/jointset/subtalar_l/subtalar_angle_l/value	/jointset/ground_pelvis/pelvis_tilt/speed	/jointset/ground_pelvis/pelvis_tx/speed	/jointset/ground_pelvis/pelvis_ty/speed	/jointset/hip_l/hip_flexion_l/speed	/jointset/hip_l/hip_adduction_l/speed	/jointset/hip_l/hip_rotation_l/speed	/jointset/back/lumbar_extension/speed	/jointset/patellofemoral_l/patellar_flexion_l/speed	/jointset/knee_l/knee_flexion_l/speed	/jointset/knee_l/knee_adduction_l/speed	/jointset/knee_l/knee_rotation_l/speed	/jointset/ankle_l/ankle_angle_l/speed	/jointset/subtalar_l/subtalar_angle_l/speed	/forceset/tau_hip_flexion_l	/forceset/tau_hip_adduction_l	/forceset/tau_hip_rotation_l	/forceset/tau_knee_flexion_l	/forceset/tau_ankle_angle_l	/forceset/tau_subtalar_angle_l	/forceset/tau_lumbar_extension	lambda_cid13_p0	lambda_cid13_p1	lambda_cid13_p2	lambda_cid13_p3	lambda_cid13_p4	lambda_cid13_p5	lambda_cid14_p0	/jointset/ground_pelvis/pelvis_tilt/accel	/jointset/ground_pelvis/pelvis_tx/accel	/jointset/ground_pelvis/pelvis_ty/accel	/jointset/hip_l/hip_flexion_l/accel	/jointset/hip_l/hip_adduction_l/accel	/jointset/hip_l/hip_rotation_l/accel	/jointset/back/lumbar_extension/accel	/jointset/patellofemoral_l/patellar_flexion_l/accel	/jointset/knee_l/knee_flexion_l/accel	/jointset/knee_l/knee_adduction_l/accel	/jointset/knee_l/knee_rotation_l/accel	/jointset/ankle_l/ankle_angle_l/accel	/jointset/subtalar_l/subtalar_angle_l/accel	gamma_cid13_p0	gamma_cid13_p1	gamma_cid13_p2	gamma_cid13_p3	gamma_cid13_p4	gamma_cid13_p5	gamma_cid14_p0
0	-0.03678552272097539	0.05666119830287334	0.9203422878340481	0.3085816938045678	-0.2956291514468293	-0.3013689520601677	-0.3879492264334186	0.2499269421184919	0.2499269421184919	-0.1745319329443412	-0.174298712284579	-0.0008036623358878681	0.0004462805748154024	0	0	0	0	0	0	0	0	0	0	0	0	0	0.06097190560681616	-0.0297338875727495	-0.01775880192812172	-0.2246353443645566	0.1599509204343819	-0.01780936824014803	0.01105114609194662	7.148559050006042	3.584115444220141	2.285450247552168	20.47243894248974	-629.8405050787312	-67.2448967368117	-23.18903771271982	-1.258110266110842	-2.139913578208793	-0.8335203842170865	8.659273550108356	-0.5363640016945422	2.655358693498818	-6.88006604458215	7.531842708965081	7.531842708965077	1.296232083812544	-0.03623405563359094	0.5993605285475531	-0.381415806408389	1.784241620967691e-08	1.971434133746728e-07	1.06917589601192e-08	-7.99818684754835e-09	1.260122365699331e-07	5.63376970490687e-08	1.792488220219846e-08
0.01	-0.03684552706757704	0.05655661683960396	0.9203015167373821	0.3090038181743803	-0.2956565167819339	-0.3012366914324042	-0.3882917417943752	0.2502963405315983	0.2502963405315983	-0.1744707090793389	-0.1742989947182914	-0.000773738581292202	0.0004266349634816043	-0.01200962591431726	-0.02069295846564032	-0.008120760483368792	0.0839547302899909	-0.005478837225253821	0.02621441217051016	-0.06803911100178681	0.0735838477509526	0.07358384775095259	0.01214209085572287	-0.0001866823520763404	0.006121818050529871	-0.003884832748966901	0.06134748173777783	-0.04147495832592633	-0.01844454767266559	-0.2313459301820314	0.1696715380498128	-0.009527209433521061	0.01273155049414029	10.52044892141704	-0.4193939217156684	2.713746177019249	15.69683961036596	-632.4231158931952	-75.72565542223271	-23.19324415758369	-1.173708473161776	-2.000488452140262	-0.7963098504719655	8.19304727021426	-0.5545412548080026	2.568833224036617	-6.696239449548471	7.227276992633402	7.227276992633406	1.157828946945359	-0.02941912647318991	0.6391589332833356	-0.3854063437053508	-6.000215961333346e-09	9.889141259664896e-08	6.046106104064773e-08	6.797505451481854e-09	1.74564067781202e-08	-3.063211416485018e-10	2.074718112678199e-09
0.02	-0.03702589161713571	0.05625180549739847	0.9201805468418672	0.3102513847474467	-0.2957388500236646	-0.3008494165338936	-0.389300729429664	0.2513927016591089	0.2513927016591089	-0.1742911380336808	-0.1743050507358202	-0.0006784833481957095	0.0003694631577452354	-0.02407204059141908	-0.04004597578722444	-0.01603975976974535	0.165088440650774	-0.01099358132519567	0.0510028541494004	-0.1332944548664348	0.1453925428808273	0.1453925428808274	0.02366943613117376	-0.001154716763294049	0.01306629570016501	-0.007505238880514208	0.06172305786873934	-0.05321602907910313	-0.01913029341720972	-0.2380565159995062	0.1793921556652437	-0.001245050626894078	0.01441195489633383	13.95082535396477	-4.431510650889418	3.141548480550375	10.8685548864943	-634.1060021202571	-84.13171279975015	-23.20584871589245	-1.268668018667756	-1.871925349397553	-0.79316814481864	8.095069564266787	-0.5435453766321484	2.370164655174832	-6.323312617154397	7.176812184749508	7.176812184749515	1.173282967758149	-0.192504467461864	0.7638924483686073	-0.3285304829244697	-2.984284813234361e-08	6.394118186251218e-10	1.102303631211763e-07	2.159319775051206e-08	-9.109942301369267e-08	-5.695033933236571e-08	-1.377544597684206e-08
0.03	-0.03732595270602591	0.05575858036834266	0.9199812153439882	0.3122966974810743	-0.2958761567879041	-0.3002197873158538	-0.3909486253862796	0.2531974734012274	0.2531974734012274	-0.1739992794775212	-0.1743227700825034	-0.0005119198273851091	0.0002769726000472027	-0.03581312836607971	-0.05853407443152127	-0.02380820358094709	0.2435375988005725	-0.0164405904889234	0.07494159828224527	-0.1958665204478459	0.2151771246501349	0.2151771246501349	0.03459273820744019	-0.002233600704266441	0.02016197756502851	-0.01099474453050434	0.05217810686357964	-0.04480394452083385	-0.01760906375702024	-0.2267309577244441	0.1661330606890441	-0.002069000160071866	0.02194029295510957	9.605976738411865	-3.454497302886307	3.147503494618975	13.24007716336329	-635.3666576252568	-80.94029084880205	-23.22660489379994	-1.107772691388535	-1.827501404660224	-0.765950723998597	7.654359978108417	-0.5412135793104424	2.40850271278532	-6.16142112731285	6.821581858237052	6.82158185823704	1.035432926836022	-0.04222780697354428	0.6697406440656948	-0.3594538952891522	-4.909792334982436e-08	2.129013736591593e-08	1.799395657740153e-07	3.944162882047668e-08	-1.629280882799771e-07	-8.851476167796884e-08	-1.95266643467297e-08
